<?xml version="1.0" standalone="no"?>
<!DOCTYPE svg PUBLIC "-//W3C//DTD SVG 20010904//EN"
 "http://www.w3.org/TR/2001/REC-SVG-20010904/DTD/svg10.dtd">
<svg version="1.0" xmlns="http://www.w3.org/2000/svg"
 width="512.000000pt" height="512.000000pt" viewBox="0 0 512.000000 512.000000"
 preserveAspectRatio="xMidYMid meet">

<g transform="translate(0.000000,512.000000) scale(0.100000,-0.100000)"
fill="#fff" stroke="none">
<path d="M2335 4513 c-116 -42 -217 -129 -250 -218 l-17 -44 -52 29 c-78 44
-165 63 -271 58 -123 -6 -202 -43 -301 -142 -110 -110 -153 -225 -139 -369 6
-54 18 -91 60 -175 162 -330 392 -552 722 -697 104 -46 359 -135 386 -135 7 0
40 37 74 83 268 363 374 675 377 1107 l1 186 -38 76 c-46 95 -122 167 -227
217 -68 32 -84 36 -175 39 -76 2 -112 -2 -150 -15z"/>
<path d="M3569 3976 c-52 -18 -161 -80 -264 -150 -114 -77 -273 -236 -347
-347 -102 -153 -198 -375 -262 -609 l-25 -90 122 -82 c135 -90 320 -183 441
-223 188 -60 443 -88 702 -75 111 5 127 9 190 40 42 20 91 56 127 91 226 226
161 582 -129 710 -25 11 -44 24 -42 27 99 190 111 313 44 456 -55 119 -156
210 -273 246 -76 23 -227 27 -284 6z"/>
<path d="M1068 3051 c-150 -50 -280 -184 -324 -336 -52 -181 46 -383 230 -474
36 -18 66 -34 66 -35 0 -2 -18 -30 -39 -62 -46 -70 -81 -166 -81 -227 0 -152
102 -312 245 -384 153 -79 310 -71 485 24 392 211 610 493 765 993 l33 105
-21 17 c-195 156 -414 276 -607 331 -152 44 -263 58 -485 63 -187 4 -216 2
-267 -15z"/>
<path d="M2612 2553 c-167 -216 -296 -496 -336 -733 -22 -127 -31 -392 -18
-508 14 -117 52 -200 132 -285 72 -77 145 -122 234 -144 59 -14 79 -15 138 -5
38 7 95 24 126 39 78 36 165 125 203 207 l30 65 36 -25 c109 -73 300 -85 426
-26 123 57 227 184 256 313 13 56 13 161 1 217 -13 53 -94 201 -169 307 -72
103 -226 256 -321 322 -150 102 -348 190 -581 258 -67 19 -122 35 -124 35 -2
0 -16 -17 -33 -37z"/>
<path d="M1950 1671 c-162 -163 -331 -324 -375 -356 -180 -135 -365 -203 -678
-250 -44 -7 -44 -9 6 -95 31 -53 346 -380 366 -380 20 0 183 141 306 264 221
222 393 457 525 716 64 126 156 369 148 389 -2 5 -136 -125 -298 -288z"/>
</g>
</svg>
