<!-- icon666.com - MILLIONS vector ICONS FREE --><svg version="1.1" id="Capa_1" xmlns="http://www.w3.org/2000/svg" xmlns:xlink="http://www.w3.org/1999/xlink" x="0px" y="0px" viewBox="0 0 220.804 220.804" style="enable-background:new 0 0 220.804 220.804;" xml:space="preserve"><g><path d="M201.921,92.482c-10.851-41.09-48.451-70.344-91.517-70.344c-42.801,0-80.356,29.243-91.401,70.321 C8.204,94.462,0,103.954,0,115.324v26.203c0,12.821,10.432,23.252,23.254,23.252c4.142,0,7.5-3.357,7.5-7.5 c0-4.143-3.358-7.5-7.5-7.5c-4.551,0-8.254-3.702-8.254-8.252v-26.203c0-4.551,3.703-8.254,8.221-8.254l1.769,0.008 c0.011,0,0.023,0,0.034,0c3.56,0,6.633-2.505,7.347-5.996c7.583-37.052,40.402-63.943,78.034-63.943 c37.876,0,70.725,26.873,78.108,63.899c0.699,3.508,3.778,6.033,7.355,6.033h1.683c4.551,0,8.254,3.703,8.254,8.254v26.203 c0,4.55-3.703,8.252-8.254,8.252c-4.142,0-7.5,3.357-7.5,7.5c0,4.143,3.358,7.5,7.5,7.5c12.822,0,23.254-10.431,23.254-23.252 v-26.203C220.804,103.996,212.661,94.533,201.921,92.482z"></path><path d="M110.399,58.179c-38.733,0-70.245,31.509-70.245,70.238c0,38.735,31.512,70.248,70.245,70.248 c38.733,0,70.244-31.513,70.244-70.248C180.644,89.688,149.132,58.179,110.399,58.179z M110.399,183.666 c-30.462,0-55.245-24.784-55.245-55.248c0-30.458,24.783-55.238,55.245-55.238c30.462,0,55.244,24.78,55.244,55.238 C165.644,158.881,140.861,183.666,110.399,183.666z"></path></g></svg>