<?xml version="1.0" standalone="no"?>
<!DOCTYPE svg PUBLIC "-//W3C//DTD SVG 20010904//EN"
 "http://www.w3.org/TR/2001/REC-SVG-20010904/DTD/svg10.dtd">
<svg version="1.0" xmlns="http://www.w3.org/2000/svg"
 width="512.000000pt" height="512.000000pt" viewBox="0 0 512.000000 512.000000"
 preserveAspectRatio="xMidYMid meet">

<g transform="translate(0.000000,512.000000) scale(0.100000,-0.100000)"
fill="#fff" stroke="none">
<path d="M2492 5109 c-46 -14 -109 -80 -122 -129 -7 -27 -10 -173 -8 -443 l3
-402 24 -38 c13 -21 42 -50 64 -65 34 -23 52 -27 107 -27 55 0 73 4 107 27 22
15 51 44 64 65 l24 38 0 425 0 425 -24 38 c-47 76 -151 113 -239 86z"/>
<path d="M1292 4709 c-46 -14 -109 -80 -122 -129 -7 -27 -10 -173 -8 -443 l3
-402 24 -38 c13 -21 42 -50 64 -65 34 -23 52 -27 107 -27 55 0 73 4 107 27 22
15 51 44 64 65 l24 38 0 425 0 425 -24 38 c-47 76 -151 113 -239 86z"/>
<path d="M3692 4709 c-46 -14 -109 -80 -122 -129 -7 -27 -10 -173 -8 -443 l3
-402 24 -38 c13 -21 42 -50 64 -65 34 -23 52 -27 107 -27 55 0 73 4 107 27 22
15 51 44 64 65 l24 38 0 425 0 425 -24 38 c-47 76 -151 113 -239 86z"/>
<path d="M2355 3589 c-715 -87 -1307 -578 -1514 -1256 -222 -725 28 -1503 630
-1964 515 -393 1197 -477 1802 -222 386 162 717 478 902 858 283 583 238 1258
-120 1795 -274 412 -698 686 -1200 775 -109 20 -390 27 -500 14z m487 -419
c631 -133 1085 -665 1115 -1310 30 -626 -362 -1196 -956 -1390 -655 -214
-1360 76 -1686 692 -54 104 -98 229 -127 361 -29 136 -31 407 -5 540 58 288
184 526 386 727 231 230 503 361 841 404 82 10 337 -4 432 -24z"/>
</g>
</svg>
