<?xml version="1.0" standalone="no"?>
<!DOCTYPE svg PUBLIC "-//W3C//DTD SVG 20010904//EN"
 "http://www.w3.org/TR/2001/REC-SVG-20010904/DTD/svg10.dtd">
<svg version="1.0" xmlns="http://www.w3.org/2000/svg"
 width="32.000000pt" height="32.000000pt" viewBox="0 0 32.000000 32.000000"
 preserveAspectRatio="xMidYMid meet">

<g transform="translate(0.000000,32.000000) scale(0.100000,-0.100000)"
fill="#000000" stroke="none">
<path d="M112 250 c-12 -12 -22 -28 -22 -37 0 -15 -2 -15 -13 1 -11 15 -17 17
-35 7 -43 -23 -19 -87 30 -78 21 4 20 4 -4 6 -35 1 -47 21 -14 21 14 0 26 6
26 13 1 6 7 -2 15 -20 25 -58 105 -58 130 0 8 18 14 26 15 20 0 -7 12 -13 26
-13 33 0 21 -20 -14 -21 -24 -2 -25 -2 -4 -6 49 -9 73 55 30 78 -18 10 -24 8
-35 -7 -11 -16 -13 -16 -13 -1 0 24 -40 57 -70 57 -14 0 -36 -9 -48 -20z m88
-95 c-7 -8 -25 -15 -40 -15 -15 0 -33 7 -40 15 -11 13 -5 15 40 15 45 0 51 -2
40 -15z"/>
<path d="M11 117 c-6 -6 -11 -15 -11 -19 0 -15 55 -8 79 11 l24 19 -40 0 c-22
0 -45 -4 -52 -11z"/>
<path d="M241 109 c24 -19 79 -26 79 -10 0 17 -26 29 -64 29 l-40 0 25 -19z"/>
<path d="M79 89 c-34 -34 -23 -39 81 -39 55 0 100 4 100 8 0 5 -6 17 -14 27
-20 28 -140 31 -167 4z"/>
</g>
</svg>
