<?xml version="1.0" standalone="no"?>
<!DOCTYPE svg PUBLIC "-//W3C//DTD SVG 20010904//EN"
 "http://www.w3.org/TR/2001/REC-SVG-20010904/DTD/svg10.dtd">
<svg version="1.0" xmlns="http://www.w3.org/2000/svg"
 width="512.000000pt" height="512.000000pt" viewBox="0 0 512.000000 512.000000"
 preserveAspectRatio="xMidYMid meet">

<g transform="translate(0.000000,512.000000) scale(0.100000,-0.100000)"
fill="#000000" stroke="none">
<path d="M2422 4995 c-29 -8 -70 -23 -93 -34 -22 -11 -421 -239 -887 -508
-791 -456 -852 -493 -918 -558 -80 -79 -126 -163 -149 -273 -22 -100 -22
-2024 0 -2125 22 -107 69 -192 150 -272 66 -66 122 -100 929 -565 472 -272
886 -506 920 -520 53 -21 76 -24 186 -24 108 0 133 3 185 24 33 13 388 213
790 445 401 232 789 455 860 496 212 121 313 241 350 416 11 51 15 149 15 391
l0 324 -30 30 c-25 24 -36 29 -58 23 -63 -16 -62 -9 -62 -334 -1 -336 -7 -404
-45 -488 -51 -116 -56 -119 -965 -644 -459 -265 -860 -494 -890 -508 -74 -35
-220 -37 -290 -5 -26 12 -338 190 -695 396 -358 206 -738 426 -845 487 -119
69 -214 131 -243 159 -65 62 -105 144 -117 235 -12 94 -12 1900 0 1994 12 89
52 172 114 233 24 25 107 81 183 124 76 44 457 264 847 489 391 226 730 419
755 431 67 30 216 29 284 -1 26 -12 428 -242 893 -510 616 -355 857 -500 891
-533 58 -57 102 -150 114 -238 4 -37 8 -200 9 -363 0 -284 1 -297 20 -314 31
-28 79 -24 107 9 l23 27 0 322 c0 241 -4 339 -15 390 -37 176 -136 294 -350
416 -71 41 -461 266 -865 499 -404 234 -760 434 -790 444 -74 27 -244 34 -318
13z"/>
<path d="M1811 3845 c-465 -269 -719 -421 -727 -437 -18 -32 -20 -1653 -2
-1692 15 -35 1434 -856 1478 -856 41 0 1457 817 1476 851 20 35 20 1663 0
1698 -9 16 -253 162 -729 437 -560 324 -724 414 -749 413 -24 0 -220 -108
-747 -414z m1414 -128 l660 -382 0 -775 0 -775 -662 -382 -662 -383 -663 383
-663 382 0 775 0 775 660 381 c363 211 662 383 665 383 3 0 302 -172 665 -382z"/>
<path d="M2373 3013 c-13 -2 -32 -16 -43 -30 -19 -25 -20 -40 -20 -423 0 -387
1 -398 21 -424 27 -34 86 -37 115 -5 17 19 19 41 22 184 l4 164 163 3 c187 3
205 10 205 78 0 68 -18 75 -206 78 l-164 3 0 110 0 109 159 0 c145 0 161 2
185 21 32 25 35 75 7 110 -19 24 -22 24 -223 25 -111 1 -213 0 -225 -3z"/>
<path d="M2964 3006 c-52 -23 -62 -91 -18 -125 23 -18 41 -21 135 -21 l109 0
0 -353 c0 -400 0 -397 70 -397 30 0 43 6 59 26 20 26 21 38 21 375 l0 349 100
0 c109 0 142 10 159 47 16 35 14 49 -13 80 l-24 28 -284 2 c-223 2 -290 0
-314 -11z"/>
<path d="M1531 2984 c-21 -26 -21 -35 -21 -424 0 -387 1 -398 21 -424 27 -34
86 -37 115 -5 17 19 19 43 24 279 l5 258 170 -261 c94 -144 178 -270 188 -279
23 -25 82 -23 107 2 19 19 20 33 20 428 0 397 -1 409 -20 430 -24 26 -76 29
-106 8 -18 -13 -19 -32 -24 -283 l-5 -268 -125 190 c-262 398 -240 370 -286
373 -35 3 -45 -1 -63 -24z"/>
<path d="M4660 2653 c-38 -14 -50 -36 -50 -93 0 -62 14 -83 62 -95 22 -6 33
-1 58 23 42 42 42 101 1 143 -29 29 -42 33 -71 22z"/>
</g>
</svg>
